HIERARCHY
ROOT pelvis
{
  OFFSET -7.63965 82.2032 82.7024
  CHANNELS 6 Xposition Yposition Zposition Zrotation Xrotation Yrotation
  JOINT lfemur
  {
    OFFSET 0 11.1017 0
    CHANNELS 3 Zrotation Xrotation Yrotation
    JOINT ltibia
    {
      OFFSET 0 0 -38.8528
      CHANNELS 3 Zrotation Xrotation Yrotation
      JOINT lfoot
      {
        OFFSET 0 0 -37.0938
        CHANNELS 3 Zrotation Xrotation Yrotation
        JOINT ltoes
        {
          OFFSET 17.1985 0 0
          CHANNELS 3 Zrotation Xrotation Yrotation
          End Site
          {
            OFFSET 0 0 0
          }
        }
      }
    }
  }
  JOINT rfemur
  {
    OFFSET 0 -11.1017 0
    CHANNELS 3 Zrotation Xrotation Yrotation
    JOINT rtibia
    {
      OFFSET 0 0 -38.8528
      CHANNELS 3 Zrotation Xrotation Yrotation
      JOINT rfoot
      {
        OFFSET 0 0 -37.0938
        CHANNELS 3 Zrotation Xrotation Yrotation
        JOINT rtoes
        {
          OFFSET 17.1985 0 0
          CHANNELS 3 Zrotation Xrotation Yrotation
          End Site
          {
            OFFSET 0 0 0
          }
        }
      }
    }
  }
  JOINT thorax
  {
    OFFSET -7.75975 2.16923 18.8303
    CHANNELS 3 Zrotation Xrotation Yrotation
    JOINT head
    {
      OFFSET 0.361093 5.80812 34.0356
      CHANNELS 3 Zrotation Xrotation Yrotation
      End Site
      {
        OFFSET 0 0 0
      }
    }
    JOINT lclavicle
    {
      OFFSET 0 0 22.6563
      CHANNELS 3 Zrotation Xrotation Yrotation
      JOINT lhumerus
      {
        OFFSET 0 15.4616 3.14228
        CHANNELS 3 Zrotation Xrotation Yrotation
        JOINT lradius
        {
          OFFSET 0 0 -25.1681
          CHANNELS 3 Zrotation Xrotation Yrotation
          JOINT lhand
          {
            OFFSET 0 0 -15.0159
            CHANNELS 3 Zrotation Xrotation Yrotation
            End Site
            {
              OFFSET 0 0 0
            }
          }
        }
      }
    }
    JOINT rclavicle
    {
      OFFSET 0 0 22.6563
      CHANNELS 3 Zrotation Xrotation Yrotation
      JOINT rhumerus
      {
        OFFSET 0 -15.4616 3.14228
        CHANNELS 3 Zrotation Xrotation Yrotation
        JOINT rradius
        {
          OFFSET 0 0 -25.1681
          CHANNELS 3 Zrotation Xrotation Yrotation
          JOINT rhand
          {
            OFFSET 0 0 -15.0159
            CHANNELS 3 Zrotation Xrotation Yrotation
            End Site
            {
              OFFSET 0 0 0
            }
          }
        }
      }
    }
  }
}
MOTION
Frames:	8
Frame Time:	0.0333333
12.2904 81.736 136.197 79.1762 -69.9474 86.8778 -21.1754 4.10546 -21.241 7.01667e-015 -5.56597e-015 23.7954 -5.13282 -0.529989 5.87942 -5.68618e-015 4.77083e-015 -24.6047 -10.4546 -6.98216 -13.2824 2.67827e-015 -5.96354e-015 31.1714 -3.07307 0.527649 -9.73344 -5.48941e-015 9.54166e-015 -30.1756 7.58111 -1.27777 16.1886 77.4295 -0.743997 -3.74775 1.00382 2.60546 -0.0456364 8.71207 4.2793 -5.66566 -34.2516 29.3049 -35.7093 3.15277e-009 -3.42654 -12.0799 -2.62847 -4.84072 -0.221961 31.0336 -16.3238 -20.4667 2.10287 3.88464 -118.457 -1.23862e-009 -3.68477 8.21927 
13.163 80.9935 135.601 76.7371 -62.5125 82.3442 -28.5488 1.98923 -22.721 7.26886e-015 -3.18055e-015 28.5013 -6.25728 -0.71208 6.46657 -9.184e-015 9.54166e-015 -29.9659 -11.6412 -10.6632 -9.34504 9.45974e-015 -4.77083e-015 36.4736 -2.08457 0.454886 -12.3045 -4.37984e-015 4.77083e-015 -36.6192 9.89078 -2.15097 15.5307 81.1277 -0.403732 -1.85658 2.40427 2.77335 -0.116399 5.27752 5.53987 -5.8525 -29.11 30.3368 -42.2106 -1.82107e-008 -5.8419 -11.8479 -1.62639 -5.24922 -0.148835 27.6595 -17.7289 -16.3719 0.257577 0.528026 -116.004 -1.43776e-009 -5.18185 6.3765 
14.095 80.4465 135.27 77.74 -53.9027 81.133 -35.0294 0.567761 -22.6019 1.724e-014 -1.19271e-014 30.0649 -8.74518 -1.00011 6.47343 9.43231e-015 1.51076e-014 -31.9782 -9.95171 -11.625 -3.77466 1.23685e-014 -4.77083e-015 40.232 -3.50929 0.784859 -12.5912 6.00216e-015 1.59028e-014 -42.6548 12.9964 -2.36562 14.4251 82.8772 0.122148 0.049362 3.05807 3.26024 -0.174081 4.40502 5.84578 -5.13007 -22.3747 30.018 -50.5504 -6.06039e-010 -6.32581 -11.5896 -1.73361 -5.61628 -0.169712 28.5064 -18.8143 -14.6752 -0.338467 -0.83837 -111.985 -2.59642e-009 -7.47977 5.90379 
14.4574 80.2658 135.483 79.0643 -44.8258 81.6018 -39.5586 0.149393 -22.9144 1.35292e-014 -7.95139e-015 29.1127 -12.976 -1.79069 7.72282 -4.28633e-015 1.11319e-014 -32.061 -5.37705 -9.58683 -1.10651 2.00933e-014 2.68359e-015 45.9346 -7.08174 1.30846 -10.4151 -1.65558e-014 6.36111e-015 -47.2967 16.5267 -3.25389 12.4658 81.6874 0.101074 2.13438 3.92886 3.49477 -0.239868 5.69938 5.13564 -4.73151 -16.7739 29.2145 -58.3021 7.60509e-008 -5.84848 -11.4304 -1.31037 -6.19961 -0.141535 29.9126 -18.2908 -15.7778 -1.11428 -3.15475 -109.465 1.64624e-008 -4.07422 6.09999 
14.1939 80.5078 136.16 80.197 -34.2397 82.0702 -45.0949 0.203995 -23.3979 4.13806e-015 -4.77083e-015 26.3526 -17.7037 -3.745 11.5641 -8.62236e-015 7.15625e-015 -33.1353 -1.41273 -6.3939 -1.2793 1.51745e-014 -3.18055e-015 53.9396 -7.79287 1.0469 -7.60425 1.17944e-014 9.54166e-015 -38.9254 19.6855 -5.15673 11.9399 79.2741 -0.848156 3.37733 5.10672 3.63904 -0.324984 6.94844 3.88075 -5.4225 -12.85 29.7445 -65.308 -1.97806e-008 -6.09857 -10.4764 -0.657529 -6.53394 -0.0748245 32.7746 -19.2777 -17.8655 -1.93512 -5.58469 -109.146 4.39696e-009 -1.39496 4.72078 
13.3712 80.9665 137.357 81.6057 -21.4688 82.7685 -51.523 0.846898 -24.0412 6.64275e-015 -7.95139e-015 21.9991 -23.483 -7.93442 17.6265 -6.52323e-016 1.43125e-014 -35.0145 0.470146 -3.1058 -2.55124 3.10132e-014 -1.66979e-014 59.1136 1.47865 -0.182935 -7.05109 5.13796e-015 1.43125e-014 -31.8201 21.8242 -7.08069 12.8865 77.0416 -1.3332 4.23801 5.4284 3.92761 -0.372935 7.77172 2.15652 -6.33969 -9.76032 29.9284 -70.9768 -3.55483e-008 -6.00046 -10.3773 -0.212655 -7.0148 -0.0259707 34.384 -20.9844 -19.7073 -2.7206 -7.60539 -109.75 1.14123e-010 -0.10436 3.32019 
12.0835 81.348 139.164 83.1624 -6.79908 83.5789 -54.2698 0.949528 -25.2247 5.13923e-015 -6.36111e-015 16.0474 -32.6947 -18.4149 26.2046 -4.87373e-015 1.82882e-014 -42.2432 1.04858 -0.565036 -3.51163 1.79911e-014 -1.09332e-014 56.5485 7.87445 -0.884659 -6.36971 -1.06093e-014 1.36664e-014 -37.0031 22.0577 -7.98463 14.6433 74.9787 -1.09573 5.42407 4.96498 3.76427 -0.326774 7.7446 0.638939 -6.0972 -7.3327 28.9087 -75.0938 9.63688e-008 -5.97552 -10.1773 -0.23164 -7.45275 -0.0300458 34.685 -22.6046 -20.6555 -2.86134 -8.39214 -108.904 -1.93111e-009 0.779554 2.29448 
10.883 81.0152 141.695 85.6335 9.12698 85.0188 -47.9193 -1.70561 -28.5911 -1.65393e-015 -6.36111e-015 14.3665 -35.8353 -29.786 34.5235 -9.54425e-015 1.27222e-014 -53.9227 3.9489 1.9609 -3.9805 2.70165e-015 8.34896e-015 47.0436 2.60576 -0.472165 -10.2635 -9.14442e-015 3.18055e-015 -28.9369 20.1874 -7.59293 15.8118 71.7422 -1.17179 5.82866 4.86156 3.73487 -0.317439 6.57078 -0.184247 -4.62688 -5.72615 28.2958 -78.0558 2.42837e-008 -6.5482 -10.0323 -0.441571 -7.1247 -0.0547688 33.4173 -23.8466 -20.3568 -2.4705 -8.50566 -106.262 -7.42186e-010 0.717513 1.74477 
